 <svg width="14" height="12" viewBox="0 0 14 12" fill="none" xmlns="http://www.w3.org/2000/svg">
      <path
        fillRule="evenodd"
        clipRule="evenodd"
        d="M5.60565 1.47906C6.21733 0.391622 7.783 0.391622 8.39469 1.47906L12.8589 9.4155C13.4589 10.4821 12.6881 11.7999 11.4644 11.7999H2.53592C1.3122 11.7999 0.541458 10.4821 1.1414 9.4155L5.60565 1.47906ZM7.8001 9.40001C7.8001 9.84183 7.44193 10.2 7.0001 10.2C6.55827 10.2 6.2001 9.84183 6.2001 9.40001C6.2001 8.95818 6.55827 8.60001 7.0001 8.60001C7.44193 8.60001 7.8001 8.95818 7.8001 9.40001ZM7.0001 3.00001C6.55827 3.00001 6.2001 3.35818 6.2001 3.80001V6.20001C6.2001 6.64183 6.55827 7.00001 7.0001 7.00001C7.44193 7.00001 7.8001 6.64183 7.8001 6.20001V3.80001C7.8001 3.35818 7.44193 3.00001 7.0001 3.00001Z"
        fill="#FF3B30"
      />
    </svg>